<svg xmlns="http://www.w3.org/2000/svg" width="37" height="34" viewBox="0 0 37 34" fill="none">
  <path d="M23.9253 16.9331h12.35c0-0.674-0.0347-1.3365-0.0953-1.9932l-12.298 1.1535c0.0259 0.276 0.0433 0.5579 0.0433 0.8397zm-0.4061-2.3419l9.1932-3.2163c-0.4534-1.3075-1.06-2.5423-1.7994-3.6813l-8.1476 5.3432c0.309 0.4794 0.5632 1.0024 0.7538 1.5544zm0.3665 3.1845l12.2981 1.1535c0.0606-0.6566 0.0953-1.322 0.0953-1.9932h-12.35c0 0.2819-0.0203 0.5637-0.0434 0.8397zm-1.124 3.0566l8.1476 5.3432c0.7395-1.139 1.346-2.3738 1.7994-3.6813l-9.1903-3.2134c-0.1906 0.5491-0.4448 1.0721-0.7567 1.5515zm-4.0172 2.9723c-0.5892 0.1656-1.2073 0.2615-1.8455 0.2702-0.0261 0-0.055 0.0029-0.0809 0.0029-0.6874 0-1.3488-0.1045-1.9785-0.2876-0.1559-0.0465-0.309-0.0988-0.4592-0.154-0.0433-0.0145-0.0866-0.032-0.127-0.0465-0.1416-0.0552-0.2802-0.1162-0.4189-0.1801-0.0462-0.0233-0.0924-0.0436-0.1386-0.0669-0.1357-0.0668-0.2686-0.1365-0.4015-0.212-0.0346-0.0204-0.0693-0.0436-0.1039-0.064-0.4131-0.2469-0.7972-0.5346-1.1495-0.86-0.0492-0.0465-0.1011-0.0901-0.1473-0.1366-0.0896-0.0842-0.1733-0.1743-0.2571-0.2643-0.0607-0.064-0.1184-0.1308-0.1762-0.1947-0.0751-0.0872-0.1473-0.1744-0.2166-0.2644-0.0635-0.0785-0.1213-0.1598-0.1791-0.2441-0.0606-0.0843-0.1213-0.1685-0.179-0.2586-0.0693-0.1075-0.1329-0.2179-0.1964-0.3283-0.0405-0.0697-0.0838-0.1365-0.1213-0.2092-0.0953-0.1801-0.1849-0.3632-0.2657-0.552-0.0289-0.0668-0.052-0.1366-0.0809-0.2063-0.052-0.1337-0.1011-0.2644-0.1473-0.401-0.026-0.0784-0.0462-0.1569-0.0693-0.2353-0.0376-0.1337-0.0722-0.2673-0.104-0.4068-0.0173-0.0784-0.0347-0.1569-0.0491-0.2382-0.0289-0.1482-0.0491-0.2993-0.0693-0.4533-0.0086-0.0697-0.0202-0.1365-0.026-0.2063-0.0202-0.2237-0.0346-0.4474-0.0346-0.677 0-0.2295 0.0144-0.4532 0.0346-0.6769 0.0058-0.0698 0.0174-0.1366 0.026-0.2063 0.0173-0.1511 0.0404-0.3022 0.0693-0.4533 0.0144-0.0813 0.0318-0.1598 0.0491-0.2382 0.0318-0.1366 0.0664-0.2732 0.104-0.4068 0.0231-0.0784 0.0462-0.1598 0.0693-0.2353 0.0433-0.1366 0.0953-0.2702 0.1473-0.401 0.026-0.0697 0.052-0.1395 0.0809-0.2063 0.0808-0.1888 0.1675-0.3719 0.2657-0.552 0.0375-0.0698 0.0808-0.1395 0.1213-0.2092 0.0635-0.1104 0.1271-0.2208 0.1964-0.3283 0.0577-0.0872 0.1184-0.1715 0.179-0.2586 0.0578-0.0814 0.1184-0.1627 0.1791-0.2441 0.0693-0.0901 0.1415-0.1772 0.2166-0.2644 0.0578-0.0668 0.1185-0.1307 0.1762-0.1947 0.0838-0.09 0.1675-0.1801 0.2571-0.2643 0.0491-0.0466 0.0981-0.0901 0.1473-0.1366 0.3523-0.3225 0.7364-0.6131 1.1495-0.86 0.0346-0.0204 0.0693-0.0436 0.1039-0.064 0.13-0.0755 0.2658-0.1452 0.4015-0.212 0.0462-0.0233 0.0924-0.0466 0.1386-0.0669 0.1387-0.0639 0.2773-0.1249 0.4189-0.1801 0.0433-0.0175 0.0866-0.032 0.127-0.0465 0.1502-0.0552 0.3033-0.1104 0.4592-0.154 0.6297-0.1831 1.2911-0.2877 1.9785-0.2877 0.0259 0 0.0548 0 0.0809 0 0.6382 0.0087 1.2563 0.1046 1.8455 0.2703l2.6427-9.4167c-1.4296-0.4039-2.9344-0.6276-4.4882-0.6363-0.0261 0-0.055 0-0.0809 0-0.6701 0-1.3286 0.0436-1.9785 0.1191-0.0375 0.003-0.075 0.0087-0.1126 0.0116-0.2166 0.0262-0.4303 0.0552-0.6441 0.0901-0.0317 0.0058-0.0635 0.0116-0.0953 0.0174-1.4903 0.2557-2.9142 0.706-4.2457 1.3278-0.0289 0.0145-0.0578 0.0262-0.0866 0.0378-0.1849 0.0872-0.3668 0.1801-0.5459 0.2731-0.052 0.0262-0.104 0.0523-0.156 0.0814-0.1675 0.0901-0.3292 0.1802-0.4939 0.276-0.0635 0.0378-0.1271 0.0726-0.1907 0.1104-0.153 0.0901-0.3032 0.186-0.4534 0.2818-0.0693 0.0436-0.1387 0.0901-0.208 0.1337-0.1415 0.093-0.2831 0.1918-0.4217 0.2876-0.0751 0.0523-0.1473 0.1046-0.2195 0.1569-0.1329 0.0959-0.2657 0.1947-0.3957 0.2964-0.0751 0.0581-0.1502 0.1191-0.2253 0.1772-0.1271 0.1017-0.2513 0.2034-0.3726 0.3051-0.0751 0.0639-0.1502 0.1308-0.2253 0.1976-0.1184 0.1046-0.2339 0.2063-0.3494 0.3138-0.078 0.0726-0.1531 0.1453-0.2282 0.2179-0.1098 0.1046-0.2195 0.2121-0.3264 0.3196-0.078 0.0784-0.1531 0.1598-0.2282 0.2412-0.1011 0.1075-0.2022 0.215-0.3004 0.3225-0.078 0.0872-0.156 0.1801-0.2311 0.2702-0.0924 0.1075-0.1849 0.2121-0.2715 0.3196-0.0895 0.1104-0.1733 0.2209-0.2599 0.3341-0.1155 0.1482-0.2282 0.2993-0.3408 0.4533-0.1098 0.1511-0.2166 0.2993-0.3206 0.4532-0.0578 0.0843-0.1098 0.1714-0.1675 0.2586-0.0867 0.1337-0.1762 0.2702-0.2599 0.4068-0.0549 0.093-0.1098 0.186-0.1646 0.2818-0.078 0.1337-0.156 0.2673-0.2311 0.4039-0.052 0.0959-0.104 0.1947-0.1531 0.2934-0.0722 0.1366-0.1415 0.2731-0.2109 0.4126-0.0491 0.0988-0.0953 0.2005-0.1415 0.2992-0.0664 0.1395-0.13 0.2819-0.1906 0.4243-0.0433 0.1017-0.0867 0.2063-0.1271 0.3079-0.0578 0.1453-0.1155 0.2877-0.1704 0.4359-0.0404 0.1046-0.078 0.2091-0.1126 0.3137-0.052 0.1483-0.1011 0.2964-0.1502 0.4475-0.0347 0.1046-0.0664 0.2121-0.0982 0.3196-0.0462 0.1511-0.0895 0.3051-0.13 0.4591-0.0289 0.1075-0.0578 0.2121-0.0838 0.3196-0.0404 0.1569-0.0751 0.3167-0.1098 0.4765-0.0231 0.1046-0.0462 0.2092-0.0664 0.3167-0.0318 0.1656-0.0607 0.3341-0.0895 0.4997-0.0173 0.1017-0.0347 0.2063-0.052 0.308-0.026 0.1772-0.0462 0.3545-0.0664 0.5346-0.0116 0.0959-0.0231 0.1918-0.0347 0.2877-0.0202 0.2004-0.0347 0.4038-0.0462 0.6072-0.0058 0.0755-0.0116 0.1482-0.0144 0.2237-0.0144 0.2789-0.0202 0.5608-0.0202 0.8455 0 0.2848 0.0087 0.5637 0.0202 0.8426 0.0058 0.0901 0.0144 0.1772 0.0173 0.2673 0.0116 0.1889 0.0231 0.3748 0.0433 0.5608 0.0116 0.1133 0.026 0.2237 0.0404 0.3341 0.0202 0.1598 0.0376 0.3225 0.0607 0.4823 0.0173 0.122 0.0404 0.2412 0.0607 0.3603 0.026 0.1482 0.0491 0.2963 0.078 0.4445 0.0231 0.125 0.052 0.2499 0.078 0.3748 0.0318 0.1395 0.0607 0.276 0.0953 0.4155 0.0318 0.1278 0.0664 0.2557 0.1011 0.3835 0.0347 0.1308 0.0722 0.2615 0.1098 0.3894 0.0376 0.1307 0.078 0.2586 0.1213 0.3893 0.0404 0.122 0.0809 0.2441 0.1242 0.3661 0.0462 0.1336 0.0924 0.2644 0.1415 0.3951 0.0433 0.1134 0.0895 0.2296 0.1329 0.34 0.0549 0.1336 0.1098 0.2673 0.1675 0.4009 0.0462 0.1046 0.0924 0.2092 0.1415 0.3138 0.0635 0.1366 0.1271 0.2761 0.1935 0.4097 0.0462 0.093 0.0924 0.183 0.1386 0.2731 0.0751 0.1453 0.1473 0.2876 0.2253 0.43 0.0404 0.0727 0.0809 0.1424 0.1213 0.215 0.0895 0.1569 0.1791 0.3167 0.2744 0.4707 0.0202 0.032 0.0404 0.064 0.0607 0.0959 0.6412 1.0344 1.3921 1.9932 2.2326 2.859 0.0087 0.0087 0.0144 0.0174 0.0231 0.0261 0.1618 0.1656 0.3264 0.3284 0.4968 0.4882 0.0173 0.0145 0.0318 0.0319 0.0491 0.0465 0.1675 0.1569 0.335 0.3079 0.5083 0.459 0.0174 0.0174 0.0375 0.032 0.0549 0.0494 0.1733 0.1482 0.3495 0.2935 0.5314 0.4358 0.0173 0.0146 0.0376 0.0291 0.0549 0.0436 0.1819 0.1424 0.3697 0.2818 0.5574 0.4184 0.0145 0.0087 0.026 0.0204 0.0404 0.0291 0.1964 0.1394 0.3928 0.276 0.595 0.4067 0 0.003 0.0087 0.0058 0.0116 0.0087 2.6282 1.7085 5.7562 2.705 9.1181 2.705 0.026 0 0.0548-0.0029 0.0808-0.0029 1.5568-0.0116 3.0586-0.2324 4.4883-0.6363l-2.6456-9.3963zm1.5537-0.648l4.7713 8.5276c1.1755-0.6683 2.2644-1.4731 3.2435-2.397l-6.6486-7.1417c-0.4131 0.3864-0.8694 0.7293-1.3662 1.0111zm1.372-11.4302l6.6371-7.1533c-0.9877-0.9269-2.0795-1.7259-3.2521-2.3883l-4.7598 8.5363c0.4968 0.279 0.9589 0.6131 1.3748 1.0053z" fill="#17191C"/>
</svg>
