<svg xmlns="http://www.w3.org/2000/svg" fill="none" viewBox="0 0 26 30">
  <g fill="#fff" fill-rule="evenodd" clip-rule="evenodd">
    <path d="M13.2166.798c-.135-.125-.205-.127-.216-.127-.012 0-.082.002-.216.127-.139.129-.304.351-.483.693-.356.683-.697 1.716-.991 3.048-.33 1.498-.591 3.33-.756 5.38.796.388 1.614.81 2.446 1.263.832-.453 1.651-.875 2.447-1.264-.165-2.05-.426-3.881-.757-5.38-.294-1.331-.635-2.364-.991-3.047-.178-.342-.344-.564-.482-.693ZM12.304 11.567c-.612-.328-1.214-.638-1.803-.929-.045.66-.08 1.34-.104 2.038.312-.189.628-.376.949-.563.32-.186.64-.369.958-.546ZM9.912 9.611C10.389 3.989 11.592 0 13 0s2.611 3.989 3.088 9.61c5.071-2.394 9.101-3.339 9.805-2.11.704 1.229-2.123 4.273-6.716 7.5 4.593 3.227 7.42 6.271 6.716 7.5-.704 1.229-4.734.284-9.805-2.11C15.611 26.01 14.408 30 13 30s-2.611-3.989-3.088-9.61C4.841 22.784.811 23.729.107 22.5c-.704-1.229 2.123-4.273 6.716-7.5C2.23 11.773-.597 8.729.107 7.5c.704-1.229 4.734-.284 9.805 2.11Zm-2.503 4.983c-1.68-1.169-3.124-2.313-4.246-3.35-.998-.923-1.715-1.737-2.124-2.39-.205-.326-.313-.582-.354-.767-.04-.18-.008-.242-.002-.251.006-.01.043-.07.218-.125.18-.057.453-.09.837-.075.765.03 1.823.249 3.115.659 1.454.46 3.159 1.148 5.003 2.03-.064.888-.11 1.813-.137 2.766-.806.5-1.578 1.002-2.31 1.503Zm0 .812c-1.68 1.169-3.124 2.313-4.246 3.35-.998.923-1.715 1.737-2.124 2.389-.205.327-.313.582-.354.768-.04.18-.008.241-.002.251.006.01.043.07.218.125.18.057.453.09.837.075.765-.03 1.823-.249 3.115-.659 1.454-.46 3.159-1.149 5.003-2.03-.064-.888-.11-1.813-.137-2.766-.806-.5-1.578-1.003-2.31-1.503Zm2.292.703A72.16 72.16 0 0 1 8.001 15a72.16 72.16 0 0 1 1.7-1.109 69.04 69.04 0 0 0 0 2.218Zm.673.418A67.64 67.64 0 0 1 10.357 15c0-.516.006-1.026.017-1.527.426-.261.861-.521 1.304-.779.444-.258.885-.508 1.322-.749.437.241.878.491 1.322.749.443.258.879.518 1.304.779.012.501.017 1.011.017 1.527 0 .516-.005 1.025-.017 1.527-.425.261-.861.521-1.304.779-.444.258-.885.508-1.322.749-.437-.241-.878-.491-1.322-.749-.443-.258-.878-.518-1.304-.779Zm.023.797c.024.697.059 1.377.104 2.037.589-.291 1.191-.6 1.803-.928-.318-.177-.638-.36-.958-.546-.321-.187-.637-.375-.949-.563ZM13 18.818c-.832.453-1.65.875-2.446 1.263.165 2.05.426 3.882.756 5.38.294 1.333.635 2.365.991 3.048.179.343.344.564.483.693.134.125.204.127.216.127.011 0 .081-.002.216-.127.138-.129.304-.35.482-.693.356-.683.697-1.715.991-3.048.331-1.498.592-3.329.757-5.38-.796-.388-1.615-.81-2.447-1.263Zm3.145.857c1.844.881 3.548 1.569 5.001 2.03 1.293.41 2.351.628 3.116.659.384.015.657-.018.837-.075.175-.055.212-.115.218-.125.006-.01.038-.071-.002-.251-.041-.186-.149-.441-.354-.768-.409-.652-1.126-1.466-2.124-2.389-1.123-1.037-2.567-2.181-4.246-3.35-.732.5-1.503 1.003-2.309 1.503-.027.953-.073 1.878-.137 2.766Zm2.446-5.081c1.679-1.169 3.123-2.313 4.246-3.35.998-.923 1.715-1.737 2.124-2.39.205-.326.313-.582.354-.767.04-.18.008-.242.002-.251-.006-.01-.043-.07-.218-.125-.18-.057-.453-.09-.837-.075-.765.03-1.823.249-3.116.659-1.453.46-3.157 1.148-5.001 2.03.064.888.11 1.813.137 2.766.806.5 1.577 1.002 2.309 1.503Zm-2.291-.703A72.26 72.26 0 0 1 17.999 15a72.26 72.26 0 0 1-1.699 1.109 69.83 69.83 0 0 0 0-2.218Zm-.697-1.215c-.024-.697-.059-1.378-.103-2.038-.59.291-1.192.601-1.804.929.318.177.638.36.958.546.321.187.637.375.949.563Zm-.103 6.686c-.59-.291-1.192-.601-1.804-.929.318-.177.638-.36.958-.546.321-.187.637-.375.949-.563-.024.697-.059 1.378-.103 2.038Z"/>
    <circle cx="3.491" cy="11.855" r="1.046"/>
    <circle cx="20.119" cy="8.241" r="1.047"/>
    <circle cx="10.892" cy="24.804" r="1.047"/>
    <circle cx="12.942" cy="14.992" r="1.772"/>
  </g>
</svg>
